{
  "accessors": [
    {
      "bufferView": 2,
      "componentType": 5126,
      "count": 6635,
      "max": [
        0.5249130129814148,
        0.9746260046958923,
        1.1940360069274902
      ],
      "min": [
        -0.520412027835846,
        -0.9650179743766785,
        0.04223399981856346
      ],
      "type": "VEC3"
    },
    {
      "bufferView": 2,
      "byteOffset": 79620,
      "componentType": 5126,
      "count": 6635,
      "type": "VEC3"
    },
    {
      "bufferView": 3,
      "componentType": 5126,
      "count": 6635,
      "type": "VEC4"
    },
    {
      "bufferView": 1,
      "componentType": 5126,
      "count": 6635,
      "type": "VEC2"
    },
    {
      "bufferView": 0,
      "componentType": 5125,
      "count": 24348,
      "type": "SCALAR"
    }
  ],
  "asset": {
    "generator": "fab-model-conversion",
    "version": "2.0"
  },
  "bufferViews": [
    {
      "buffer": 0,
      "byteLength": 97392,
      "target": 34963
    },
    {
      "buffer": 0,
      "byteLength": 53080,
      "byteOffset": 97392,
      "byteStride": 8,
      "target": 34962
    },
    {
      "buffer": 0,
      "byteLength": 159240,
      "byteOffset": 150472,
      "byteStride": 12,
      "target": 34962
    },
    {
      "buffer": 0,
      "byteLength": 106160,
      "byteOffset": 309712,
      "byteStride": 16,
      "target": 34962
    }
  ],
  "buffers": [
    {
      "byteLength": 415872,
      "uri": "scene.bin"
    }
  ],
  "images": [
    {
      "uri": "textures/Vintage_Toolbox_baseColor.jpeg"
    },
    {
      "uri": "textures/Vintage_Toolbox_metallicRoughness.jpeg"
    },
    {
      "uri": "textures/Vintage_Toolbox_normal.jpeg"
    }
  ],
  "materials": [
    {
      "doubleSided": true,
      "name": "Vintage_Toolbox",
      "normalTexture": {
        "index": 2
      },
      "occlusionTexture": {
        "index": 1
      },
      "pbrMetallicRoughness": {
        "baseColorTexture": {
          "index": 0
        },
        "metallicRoughnessTexture": {
          "index": 1
        }
      }
    }
  ],
  "meshes": [
    {
      "name": "Object_0",
      "primitives": [
        {
          "attributes": {
            "NORMAL": 1,
            "POSITION": 0,
            "TANGENT": 2,
            "TEXCOORD_0": 3
          },
          "indices": 4,
          "material": 0,
          "mode": 4
        }
      ]
    }
  ],
  "nodes": [
    {
      "children": [
        1
      ],
      "matrix": [
        0.749587795187378,
        1.3839846128903833e-17,
        0.6619049307159793,
        0.0,
        0.6619049307159793,
        1.6644192583900662e-16,
        -0.749587795187378,
        0.0,
        -1.2054291113619942e-16,
        1.0,
        1.1560217382333017e-16,
        0.0,
        0.0,
        0.0,
        0.0,
        1.0
      ],
      "name": "FAB converted model"
    },
    {
      "children": [
        2
      ],
      "name": "vintage_toolbox.obj.cleaner.materialmerger.gles"
    },
    {
      "mesh": 0,
      "name": "Object_2"
    }
  ],
  "samplers": [
    {
      "magFilter": 9729,
      "minFilter": 9987,
      "wrapS": 10497,
      "wrapT": 10497
    }
  ],
  "scene": 0,
  "scenes": [
    {
      "name": "FAB converted",
      "nodes": [
        0
      ]
    }
  ],
  "textures": [
    {
      "sampler": 0,
      "source": 0
    },
    {
      "sampler": 0,
      "source": 1
    },
    {
      "sampler": 0,
      "source": 2
    }
  ]
}
