{
  "accessors": [
    {
      "bufferView": 2,
      "componentType": 5126,
      "count": 9602,
      "max": [
        111.68326568603516,
        11.467297554016113,
        81.99727630615234
      ],
      "min": [
        -110.66779327392578,
        -0.6191651821136475,
        -81.77039337158203
      ],
      "type": "VEC3"
    },
    {
      "bufferView": 2,
      "byteOffset": 115224,
      "componentType": 5126,
      "count": 9602,
      "type": "VEC3"
    },
    {
      "bufferView": 3,
      "componentType": 5126,
      "count": 9602,
      "type": "VEC4"
    },
    {
      "bufferView": 1,
      "componentType": 5126,
      "count": 9602,
      "type": "VEC2"
    },
    {
      "bufferView": 0,
      "componentType": 5125,
      "count": 51393,
      "type": "SCALAR"
    }
  ],
  "asset": {
    "generator": "fab-model-conversion",
    "version": "2.0"
  },
  "bufferViews": [
    {
      "buffer": 0,
      "byteLength": 205572,
      "target": 34963
    },
    {
      "buffer": 0,
      "byteLength": 76816,
      "byteOffset": 205572,
      "byteStride": 8,
      "target": 34962
    },
    {
      "buffer": 0,
      "byteLength": 230448,
      "byteOffset": 282388,
      "byteStride": 12,
      "target": 34962
    },
    {
      "buffer": 0,
      "byteLength": 153632,
      "byteOffset": 512836,
      "byteStride": 16,
      "target": 34962
    }
  ],
  "buffers": [
    {
      "byteLength": 666468,
      "uri": "Wrinkled_Tarp_vhtidbb_High.bin"
    }
  ],
  "images": [
    {
      "uri": "textures/Wrinkled_Tarp_vhtidbb_High_4K_albedo.jpeg"
    },
    {
      "uri": "textures/Wrinkled_Tarp_vhtidbb_High_4K_orm.png"
    },
    {
      "uri": "textures/Wrinkled_Tarp_vhtidbb_High_4K_normal.jpeg"
    }
  ],
  "materials": [
    {
      "doubleSided": true,
      "name": "Wrinkled_Tarp_vhtidbb_High",
      "normalTexture": {
        "index": 2
      },
      "occlusionTexture": {
        "index": 1
      },
      "pbrMetallicRoughness": {
        "baseColorTexture": {
          "index": 0
        },
        "metallicFactor": 0.0,
        "metallicRoughnessTexture": {
          "index": 1
        }
      }
    }
  ],
  "meshes": [
    {
      "name": "vhtidbb_LOD0_TIER1_000_MatID_1_0",
      "primitives": [
        {
          "attributes": {
            "NORMAL": 1,
            "POSITION": 0,
            "TANGENT": 2,
            "TEXCOORD_0": 3
          },
          "indices": 4,
          "material": 0,
          "mode": 4
        }
      ]
    }
  ],
  "nodes": [
    {
      "children": [
        1
      ],
      "matrix": [
        1.0,
        0.0,
        0.0,
        0.0,
        0.0,
        2.220446049250313e-16,
        -1.0,
        0.0,
        0.0,
        1.0,
        2.220446049250313e-16,
        0.0,
        0.0,
        0.0,
        0.0,
        1.0
      ],
      "name": "Sketchfab_model"
    },
    {
      "children": [
        2
      ],
      "matrix": [
        0.009999999776482582,
        0.0,
        0.0,
        0.0,
        0.0,
        0.0,
        0.009999999776482582,
        0.0,
        0.0,
        -0.009999999776482582,
        0.0,
        0.0,
        0.0,
        0.0,
        0.0,
        1.0
      ],
      "name": "Wrinkled_Tarp_vhtidbb_High.fbx"
    },
    {
      "children": [
        3
      ],
      "name": "RootNode"
    },
    {
      "children": [
        4
      ],
      "name": "vhtidbb_LOD0_TIER1_000"
    },
    {
      "mesh": 0,
      "name": "vhtidbb_LOD0_TIER1_000_MatID_1_0"
    }
  ],
  "samplers": [
    {
      "magFilter": 9729,
      "minFilter": 9987,
      "wrapS": 10497,
      "wrapT": 10497
    }
  ],
  "scene": 0,
  "scenes": [
    {
      "name": "Sketchfab_Scene",
      "nodes": [
        0
      ]
    }
  ],
  "textures": [
    {
      "sampler": 0,
      "source": 0
    },
    {
      "sampler": 0,
      "source": 1
    },
    {
      "sampler": 0,
      "source": 2
    }
  ]
}
