{
  "accessors": [
    {
      "bufferView": 2,
      "componentType": 5126,
      "count": 4939,
      "max": [
        1.073320746421814,
        0.464844286441803,
        0.870820939540863
      ],
      "min": [
        -0.9337129592895508,
        -0.4226571321487427,
        -0.00041663646697998047
      ],
      "type": "VEC3"
    },
    {
      "bufferView": 2,
      "byteOffset": 59268,
      "componentType": 5126,
      "count": 4939,
      "max": [
        1.0,
        1.0,
        1.0
      ],
      "min": [
        -1.0,
        -1.0,
        -0.9999999403953552
      ],
      "type": "VEC3"
    },
    {
      "bufferView": 3,
      "componentType": 5126,
      "count": 4939,
      "max": [
        0.9999845623970032,
        1.0,
        1.0,
        1.0
      ],
      "min": [
        -0.9999923706054688,
        -0.9999997615814209,
        -1.0,
        -1.0
      ],
      "type": "VEC4"
    },
    {
      "bufferView": 1,
      "componentType": 5126,
      "count": 4939,
      "max": [
        0.9965736865997314,
        0.999755859375
      ],
      "min": [
        0.000244140625,
        0.000244140625
      ],
      "type": "VEC2"
    },
    {
      "bufferView": 0,
      "componentType": 5125,
      "count": 25704,
      "type": "SCALAR"
    }
  ],
  "asset": {
    "extras": {
      "author": "carlcapu9 (https://sketchfab.com/carlcapu9)",
      "license": "CC-BY-4.0 (http://creativecommons.org/licenses/by/4.0/)",
      "source": "https://sketchfab.com/3d-models/old-wooden-table-abb5aa1de9d74fd7bce559f49226bd37",
      "title": "Old Wooden Table"
    },
    "generator": "Sketchfab-16.95.0",
    "version": "2.0"
  },
  "bufferViews": [
    {
      "buffer": 0,
      "byteLength": 102816,
      "name": "floatBufferViews",
      "target": 34963
    },
    {
      "buffer": 0,
      "byteLength": 39512,
      "byteOffset": 102816,
      "byteStride": 8,
      "name": "floatBufferViews",
      "target": 34962
    },
    {
      "buffer": 0,
      "byteLength": 118536,
      "byteOffset": 142328,
      "byteStride": 12,
      "name": "floatBufferViews",
      "target": 34962
    },
    {
      "buffer": 0,
      "byteLength": 79024,
      "byteOffset": 260864,
      "byteStride": 16,
      "name": "floatBufferViews",
      "target": 34962
    }
  ],
  "buffers": [
    {
      "byteLength": 339888,
      "uri": "scene.bin"
    }
  ],
  "images": [
    {
      "uri": "textures/Wooden_Table_baseColor.png"
    },
    {
      "uri": "textures/Wooden_Table_metallicRoughness.png"
    },
    {
      "uri": "textures/Wooden_Table_normal.png"
    }
  ],
  "materials": [
    {
      "doubleSided": true,
      "name": "Wooden_Table",
      "normalTexture": {
        "index": 2
      },
      "occlusionTexture": {
        "index": 1
      },
      "pbrMetallicRoughness": {
        "baseColorTexture": {
          "index": 0
        },
        "metallicRoughnessTexture": {
          "index": 1
        },
        "roughnessFactor": 0.7969548097670393
      }
    }
  ],
  "meshes": [
    {
      "name": "Wooden_Table_Wooden_Table_0",
      "primitives": [
        {
          "attributes": {
            "NORMAL": 1,
            "POSITION": 0,
            "TANGENT": 2,
            "TEXCOORD_0": 3
          },
          "indices": 4,
          "material": 0,
          "mode": 4
        }
      ]
    }
  ],
  "nodes": [
    {
      "children": [
        1
      ],
      "matrix": [
        1.0,
        0.0,
        0.0,
        0.0,
        0.0,
        2.220446049250313e-16,
        -1.0,
        0.0,
        0.0,
        1.0,
        2.220446049250313e-16,
        0.0,
        0.0,
        0.0,
        0.0,
        1.0
      ],
      "name": "Sketchfab_model"
    },
    {
      "children": [
        2
      ],
      "matrix": [
        0.009999999776482582,
        0.0,
        0.0,
        0.0,
        0.0,
        0.0,
        0.009999999776482582,
        0.0,
        0.0,
        -0.009999999776482582,
        0.0,
        0.0,
        0.0,
        0.0,
        0.0,
        1.0
      ],
      "name": "bddac1e84f054280bca13d9eedf6a7ef.fbx"
    },
    {
      "children": [
        3
      ],
      "name": "RootNode"
    },
    {
      "children": [
        4
      ],
      "matrix": [
        100.0,
        0.0,
        0.0,
        0.0,
        0.0,
        -1.629206793918314e-05,
        -99.99999999999868,
        0.0,
        0.0,
        99.99999999999868,
        -1.629206793918314e-05,
        0.0,
        0.0,
        0.0,
        0.0,
        1.0
      ],
      "name": "Wooden_Table"
    },
    {
      "mesh": 0,
      "name": "Wooden_Table_Wooden_Table_0"
    }
  ],
  "samplers": [
    {
      "magFilter": 9729,
      "minFilter": 9987,
      "wrapS": 10497,
      "wrapT": 10497
    }
  ],
  "scene": 0,
  "scenes": [
    {
      "name": "Sketchfab_Scene",
      "nodes": [
        0
      ]
    }
  ],
  "textures": [
    {
      "sampler": 0,
      "source": 0
    },
    {
      "sampler": 0,
      "source": 1
    },
    {
      "sampler": 0,
      "source": 2
    }
  ]
}
