{
  "accessors": [
    {
      "bufferView": 2,
      "componentType": 5126,
      "count": 700,
      "max": [
        2.513201951980591,
        0.7515186667442322,
        0.34675872325897217
      ],
      "min": [
        -2.829826831817627,
        -0.7805907130241394,
        -0.10487077385187149
      ],
      "type": "VEC3"
    },
    {
      "bufferView": 2,
      "byteOffset": 8400,
      "componentType": 5126,
      "count": 700,
      "max": [
        0.9505691528320313,
        0.9997249245643616,
        0.9999361038208008
      ],
      "min": [
        -0.7592474818229675,
        -0.9997249245643616,
        -0.9999361038208008
      ],
      "type": "VEC3"
    },
    {
      "bufferView": 3,
      "componentType": 5126,
      "count": 700,
      "max": [
        0.999995231628418,
        0.9997273087501526,
        1.0,
        1.0
      ],
      "min": [
        -0.9998962879180908,
        -0.9998700022697449,
        -0.9949321746826172,
        -1.0
      ],
      "type": "VEC4"
    },
    {
      "bufferView": 1,
      "componentType": 5126,
      "count": 700,
      "max": [
        0.9983097314834595,
        0.9973968863487244
      ],
      "min": [
        0.0016816125717014074,
        0.0016823492478579283
      ],
      "type": "VEC2"
    },
    {
      "bufferView": 1,
      "byteOffset": 5600,
      "componentType": 5126,
      "count": 700,
      "max": [
        0.9983097314834595,
        0.9973968863487244
      ],
      "min": [
        0.0016816125717014074,
        0.0016823492478579283
      ],
      "type": "VEC2"
    },
    {
      "bufferView": 1,
      "byteOffset": 11200,
      "componentType": 5126,
      "count": 700,
      "max": [
        0.9983097314834595,
        0.9973968863487244
      ],
      "min": [
        0.0016816125717014074,
        0.0016823492478579283
      ],
      "type": "VEC2"
    },
    {
      "bufferView": 0,
      "componentType": 5125,
      "count": 2256,
      "type": "SCALAR"
    },
    {
      "bufferView": 2,
      "byteOffset": 16800,
      "componentType": 5126,
      "count": 508,
      "max": [
        2.5116560459136963,
        1.0571258068084717,
        0.22009022533893585
      ],
      "min": [
        -2.446976661682129,
        -1.0286023616790771,
        -0.21996913850307465
      ],
      "type": "VEC3"
    },
    {
      "bufferView": 2,
      "byteOffset": 22896,
      "componentType": 5126,
      "count": 508,
      "max": [
        0.9999414086341858,
        0.9998959898948669,
        1.0
      ],
      "min": [
        -0.9911472201347351,
        -0.9999122023582458,
        -1.0
      ],
      "type": "VEC3"
    },
    {
      "bufferView": 3,
      "byteOffset": 11200,
      "componentType": 5126,
      "count": 508,
      "max": [
        0.9999650120735168,
        0.9991180896759033,
        1.0,
        1.0
      ],
      "min": [
        -0.9998469948768616,
        -0.9995420575141907,
        -0.9999827742576599,
        -1.0
      ],
      "type": "VEC4"
    },
    {
      "bufferView": 1,
      "byteOffset": 16800,
      "componentType": 5126,
      "count": 508,
      "max": [
        0.9981830716133118,
        0.9881595373153687
      ],
      "min": [
        0.0015420897398144007,
        0.0015406187158077955
      ],
      "type": "VEC2"
    },
    {
      "bufferView": 1,
      "byteOffset": 20864,
      "componentType": 5126,
      "count": 508,
      "max": [
        0.9981830716133118,
        0.9881595373153687
      ],
      "min": [
        0.0015420897398144007,
        0.0015406187158077955
      ],
      "type": "VEC2"
    },
    {
      "bufferView": 0,
      "byteOffset": 9024,
      "componentType": 5125,
      "count": 1902,
      "type": "SCALAR"
    },
    {
      "bufferView": 2,
      "byteOffset": 28992,
      "componentType": 5126,
      "count": 162,
      "max": [
        2.7420613765716553,
        1.1507024765014648,
        0.27413779497146606
      ],
      "min": [
        -2.3006603717803955,
        -0.8807988166809082,
        -0.27413779497146606
      ],
      "type": "VEC3"
    },
    {
      "bufferView": 2,
      "byteOffset": 30936,
      "componentType": 5126,
      "count": 162,
      "max": [
        0.9579874277114868,
        0.9999987483024597,
        0.9999992847442627
      ],
      "min": [
        -0.9227559566497803,
        -0.9999987483024597,
        -0.9999992847442627
      ],
      "type": "VEC3"
    },
    {
      "bufferView": 3,
      "byteOffset": 19328,
      "componentType": 5126,
      "count": 162,
      "max": [
        0.9599578976631165,
        0.9997438192367554,
        0.9999211430549622,
        1.0
      ],
      "min": [
        -0.9999992251396179,
        -0.9999995231628418,
        -0.9999988675117493,
        1.0
      ],
      "type": "VEC4"
    },
    {
      "bufferView": 1,
      "byteOffset": 24928,
      "componentType": 5126,
      "count": 162,
      "max": [
        0.9749969840049744,
        0.9981717467308044
      ],
      "min": [
        0.0018231990979984403,
        0.001819794182665646
      ],
      "type": "VEC2"
    },
    {
      "bufferView": 1,
      "byteOffset": 26224,
      "componentType": 5126,
      "count": 162,
      "max": [
        0.9749969840049744,
        0.9981717467308044
      ],
      "min": [
        0.0018231990979984403,
        0.001819794182665646
      ],
      "type": "VEC2"
    },
    {
      "bufferView": 1,
      "byteOffset": 27520,
      "componentType": 5126,
      "count": 162,
      "max": [
        0.9749969840049744,
        0.9981717467308044
      ],
      "min": [
        0.0018231990979984403,
        0.001819794182665646
      ],
      "type": "VEC2"
    },
    {
      "bufferView": 0,
      "byteOffset": 16632,
      "componentType": 5125,
      "count": 564,
      "type": "SCALAR"
    },
    {
      "bufferView": 2,
      "byteOffset": 32880,
      "componentType": 5126,
      "count": 305,
      "max": [
        3.3804166316986084,
        0.40517544746398926,
        0.19193625450134277
      ],
      "min": [
        -3.027557849884033,
        -0.7327484488487244,
        -0.19193531572818756
      ],
      "type": "VEC3"
    },
    {
      "bufferView": 2,
      "byteOffset": 36540,
      "componentType": 5126,
      "count": 305,
      "max": [
        0.9325037002563477,
        0.9408423900604248,
        0.9931302070617676
      ],
      "min": [
        -0.9387494921684265,
        -0.9278877377510071,
        -0.992641270160675
      ],
      "type": "VEC3"
    },
    {
      "bufferView": 3,
      "byteOffset": 21920,
      "componentType": 5126,
      "count": 305,
      "max": [
        0.9999863505363464,
        0.9935253858566284,
        0.929125964641571,
        1.0
      ],
      "min": [
        -0.9999874830245972,
        -0.9995754957199097,
        -0.9288931488990784,
        1.0
      ],
      "type": "VEC4"
    },
    {
      "bufferView": 1,
      "byteOffset": 28816,
      "componentType": 5126,
      "count": 305,
      "max": [
        0.9982008337974548,
        0.9983718395233154
      ],
      "min": [
        0.001546333427540958,
        0.0015511988895013928
      ],
      "type": "VEC2"
    },
    {
      "bufferView": 1,
      "byteOffset": 31256,
      "componentType": 5126,
      "count": 305,
      "max": [
        0.9982008337974548,
        0.9983718395233154
      ],
      "min": [
        0.001546333427540958,
        0.0015511988895013928
      ],
      "type": "VEC2"
    },
    {
      "bufferView": 1,
      "byteOffset": 33696,
      "componentType": 5126,
      "count": 305,
      "max": [
        0.9982008337974548,
        0.9983718395233154
      ],
      "min": [
        0.001546333427540958,
        0.0015511988895013928
      ],
      "type": "VEC2"
    },
    {
      "bufferView": 0,
      "byteOffset": 18888,
      "componentType": 5125,
      "count": 1023,
      "type": "SCALAR"
    }
  ],
  "asset": {
    "extras": {
      "author": "thrd.dim (https://sketchfab.com/thrd.dim)",
      "license": "CC-BY-4.0 (http://creativecommons.org/licenses/by/4.0/)",
      "source": "https://sketchfab.com/3d-models/tools-asset-279db01161c94df7911c6b3dc2c9942e",
      "title": "Tools asset"
    },
    "generator": "Sketchfab-15.87.0",
    "version": "2.0"
  },
  "bufferViews": [
    {
      "buffer": 0,
      "byteLength": 22980,
      "name": "floatBufferViews",
      "target": 34963
    },
    {
      "buffer": 0,
      "byteLength": 36136,
      "byteOffset": 22980,
      "byteStride": 8,
      "name": "floatBufferViews",
      "target": 34962
    },
    {
      "buffer": 0,
      "byteLength": 40200,
      "byteOffset": 59116,
      "byteStride": 12,
      "name": "floatBufferViews",
      "target": 34962
    },
    {
      "buffer": 0,
      "byteLength": 26800,
      "byteOffset": 99316,
      "byteStride": 16,
      "name": "floatBufferViews",
      "target": 34962
    }
  ],
  "buffers": [
    {
      "byteLength": 126116,
      "uri": "scene.bin"
    }
  ],
  "extensionsUsed": [
    "KHR_materials_specular"
  ],
  "images": [
    {
      "uri": "textures/PliersMat_baseColor.png"
    },
    {
      "uri": "textures/PliersMat_metallicRoughness.png"
    },
    {
      "uri": "textures/PliersMat_normal.png"
    },
    {
      "uri": "textures/Hummer_baseColor.jpeg"
    },
    {
      "uri": "textures/Hummer_metallicRoughness.png"
    },
    {
      "uri": "textures/Hummer_normal.png"
    },
    {
      "uri": "textures/Hummer2_baseColor.jpeg"
    },
    {
      "uri": "textures/Hummer2_metallicRoughness.png"
    },
    {
      "uri": "textures/Hummer2_normal.png"
    },
    {
      "uri": "textures/Fomka1_baseColor.jpeg"
    },
    {
      "uri": "textures/Fomka1_metallicRoughness.png"
    },
    {
      "uri": "textures/Fomka1_normal.png"
    }
  ],
  "materials": [
    {
      "doubleSided": true,
      "name": "PliersMat",
      "normalTexture": {
        "index": 2
      },
      "occlusionTexture": {
        "index": 1
      },
      "pbrMetallicRoughness": {
        "baseColorTexture": {
          "index": 0
        },
        "metallicRoughnessTexture": {
          "index": 1
        }
      }
    },
    {
      "doubleSided": true,
      "name": "Hummer",
      "normalTexture": {
        "index": 5
      },
      "occlusionTexture": {
        "index": 4
      },
      "pbrMetallicRoughness": {
        "baseColorTexture": {
          "index": 3
        },
        "metallicRoughnessTexture": {
          "index": 4
        }
      }
    },
    {
      "doubleSided": true,
      "name": "Hummer2",
      "normalTexture": {
        "index": 8
      },
      "occlusionTexture": {
        "index": 7
      },
      "pbrMetallicRoughness": {
        "baseColorTexture": {
          "index": 6
        },
        "metallicRoughnessTexture": {
          "index": 7
        }
      }
    },
    {
      "doubleSided": true,
      "extensions": {
        "KHR_materials_specular": {
          "specularColorFactor": [
            1.0,
            1.0,
            1.0
          ],
          "specularFactor": 1.0
        }
      },
      "name": "Fomka1",
      "normalTexture": {
        "index": 11
      },
      "occlusionTexture": {
        "index": 10
      },
      "pbrMetallicRoughness": {
        "baseColorTexture": {
          "index": 9
        },
        "metallicRoughnessTexture": {
          "index": 10
        }
      }
    }
  ],
  "meshes": [
    {
      "name": "Pliers_PliersMat_0",
      "primitives": [
        {
          "attributes": {
            "NORMAL": 1,
            "POSITION": 0,
            "TANGENT": 2,
            "TEXCOORD_0": 3,
            "TEXCOORD_1": 4,
            "TEXCOORD_2": 5
          },
          "indices": 6,
          "material": 0,
          "mode": 4
        }
      ]
    },
    {
      "name": "Hummer1_Hummer_0",
      "primitives": [
        {
          "attributes": {
            "NORMAL": 8,
            "POSITION": 7,
            "TANGENT": 9,
            "TEXCOORD_0": 10,
            "TEXCOORD_1": 11
          },
          "indices": 12,
          "material": 1,
          "mode": 4
        }
      ]
    },
    {
      "name": "Hummer2_Hummer2_0",
      "primitives": [
        {
          "attributes": {
            "NORMAL": 14,
            "POSITION": 13,
            "TANGENT": 15,
            "TEXCOORD_0": 16,
            "TEXCOORD_1": 17,
            "TEXCOORD_2": 18
          },
          "indices": 19,
          "material": 2,
          "mode": 4
        }
      ]
    },
    {
      "name": "Fomka1_Fomka1_0",
      "primitives": [
        {
          "attributes": {
            "NORMAL": 21,
            "POSITION": 20,
            "TANGENT": 22,
            "TEXCOORD_0": 23,
            "TEXCOORD_1": 24,
            "TEXCOORD_2": 25
          },
          "indices": 26,
          "material": 3,
          "mode": 4
        }
      ]
    }
  ],
  "nodes": [
    {
      "children": [
        1
      ],
      "matrix": [
        0.07692307978868484,
        0.0,
        0.0,
        0.0,
        0.0,
        2.945052934487184e-17,
        -0.07692307978868484,
        0.0,
        0.0,
        0.07692307978868484,
        2.945052934487184e-17,
        0.0,
        0.0,
        0.0,
        0.0,
        1.0
      ],
      "name": "Sketchfab_model"
    },
    {
      "children": [
        2
      ],
      "matrix": [
        0.009999999776482582,
        0.0,
        0.0,
        0.0,
        0.0,
        0.0,
        0.009999999776482582,
        0.0,
        0.0,
        -0.009999999776482582,
        0.0,
        0.0,
        0.0,
        0.0,
        0.0,
        1.0
      ],
      "name": "b282bd22f1f649cdb62e2fd6c49b7fec.fbx"
    },
    {
      "children": [
        3,
        5,
        7,
        9
      ],
      "name": "RootNode"
    },
    {
      "children": [
        4
      ],
      "matrix": [
        53.02595520019531,
        0.0,
        0.0,
        0.0,
        0.0,
        -9.366620256735364e-06,
        -57.49190521240158,
        0.0,
        0.0,
        76.14854431152243,
        -1.2406172573932378e-05,
        0.0,
        0.0,
        0.0,
        -1603.36328125,
        1.0
      ],
      "name": "Pliers"
    },
    {
      "mesh": 0,
      "name": "Pliers_PliersMat_0"
    },
    {
      "children": [
        6
      ],
      "matrix": [
        100.0,
        0.0,
        0.0,
        0.0,
        0.0,
        -1.629206793918314e-05,
        -99.99999999999868,
        0.0,
        0.0,
        99.99999999999868,
        -1.629206793918314e-05,
        0.0,
        0.0,
        0.0,
        -2058.85009765625,
        1.0
      ],
      "name": "Hummer1"
    },
    {
      "mesh": 1,
      "name": "Hummer1_Hummer_0"
    },
    {
      "children": [
        8
      ],
      "matrix": [
        100.0,
        0.0,
        0.0,
        0.0,
        0.0,
        -1.629206793918314e-05,
        -99.99999999999868,
        0.0,
        0.0,
        99.99999999999868,
        -1.629206793918314e-05,
        0.0,
        0.0,
        0.0,
        -1792.5443115234375,
        1.0
      ],
      "name": "Hummer2"
    },
    {
      "mesh": 2,
      "name": "Hummer2_Hummer2_0"
    },
    {
      "children": [
        10
      ],
      "matrix": [
        100.0,
        0.0,
        0.0,
        0.0,
        -0.0,
        -1.629206793918314e-05,
        -99.99999999999868,
        0.0,
        0.0,
        99.99999999999868,
        -1.629206793918314e-05,
        0.0,
        -1.6202926635742188,
        0.0,
        -2327.6767578125,
        1.0
      ],
      "name": "Fomka1"
    },
    {
      "mesh": 3,
      "name": "Fomka1_Fomka1_0"
    }
  ],
  "samplers": [
    {
      "magFilter": 9729,
      "minFilter": 9987,
      "wrapS": 10497,
      "wrapT": 10497
    }
  ],
  "scene": 0,
  "scenes": [
    {
      "name": "Sketchfab_Scene",
      "nodes": [
        0
      ]
    }
  ],
  "textures": [
    {
      "sampler": 0,
      "source": 0
    },
    {
      "sampler": 0,
      "source": 1
    },
    {
      "sampler": 0,
      "source": 2
    },
    {
      "sampler": 0,
      "source": 3
    },
    {
      "sampler": 0,
      "source": 4
    },
    {
      "sampler": 0,
      "source": 5
    },
    {
      "sampler": 0,
      "source": 6
    },
    {
      "sampler": 0,
      "source": 7
    },
    {
      "sampler": 0,
      "source": 8
    },
    {
      "sampler": 0,
      "source": 9
    },
    {
      "sampler": 0,
      "source": 10
    },
    {
      "sampler": 0,
      "source": 11
    }
  ]
}
